{"title":"Papa Roach live at Rock AM Ring 2009","uid":7104884,"size":1235777536,"categoryP":"video","categoryS":"music_videos","magnet":"?xt=urn:btih:c31ab2da313fc3ce604f4f054fe02c4c3104337c&amp;dn=Papa+Roach+live+at+Rock+AM+Ring+2009&amp;tr=udp%3A%2F%2Ftracker.openbittorrent.com%3A80&amp;tr=udp%3A%2F%2Fopen.demonii.com%3A1337&amp;tr=udp%3A%2F%2Ftracker.coppersurfer.tk%3A6969&amp;tr=udp%3A%2F%2Fexodus.desync.com%3A6969","seeders":1,"leechers":1,"uploader":"yesrno","files":1,"time":1331834478,"description":"File info:\nDuration: 00:41:16.00, start: 0.000000, bitrate: 3992 kb/s\nStream #0:0: Video: mpeg4 (Advanced Simple Profile) (XVID / 0x44495658), yuv 420p, 1280x720 [SAR 1:1 DAR 16:9], 25 tbr, 25 tbn, 25 tbc\n\nStream #0:1: Audio: ac3 ([0] [0][0] / 0x2000), 48000 Hz, stereo, s16, 384 kb/s\n\nTrack list:\n\n1. Between Angels and Insects\n2. To be loved\n3. Getting away with murder\n4. LifeLine\n5. Forever\n6. Hollywood whore\n7. Scars\n8. I Almost Told You That I Loved You\n9. Last Resort\n\nEnjoy!","torrent":{"xt":"urn:btih:c31ab2da313fc3ce604f4f054fe02c4c3104337c","amp;dn":"Papa+Roach+live+at+Rock+AM+Ring+2009","amp;tr":["udp%3A%2F%2Ftracker.openbittorrent.com%3A80","udp%3A%2F%2Fopen.demonii.com%3A1337","udp%3A%2F%2Ftracker.coppersurfer.tk%3A6969","udp%3A%2F%2Fexodus.desync.com%3A6969"],"infoHash":"c31ab2da313fc3ce604f4f054fe02c4c3104337c","infoHashBuffer":{"type":"Buffer","data":[195,26,178,218,49,63,195,206,96,79,79,5,79,224,44,76,49,4,51,124]},"announce":[],"urlList":[]}}